<svg id="ae3023b0-7cbc-4a35-ba25-651ed8049c0d" data-name="Uniconvert" xmlns="http://www.w3.org/2000/svg" xmlns:xlink="http://www.w3.org/1999/xlink" width="256" height="256" viewBox="0 0 256 256">
<!-- Made by Fabix with the help of DNAScanner -->
  <defs>
    <linearGradient id="a46ac88e-8c6e-46c9-bec9-77ac905147e5" data-name="Unbenannter Verlauf 8" x1="31.75" y1="128.40945" x2="223.25" y2="128.40945" gradientUnits="userSpaceOnUse">
      <stop offset="0.48883" stop-color="#1e9cd7"/>
      <stop offset="0.52831" stop-color="#1e9cd7"/>
      <stop offset="0.86517" stop-color="#0075be"/>
      <stop offset="0.99438" stop-color="#005b97"/>
    </linearGradient>
  </defs>
  <g id="f533d075-3be8-40ba-a3a7-e698ed3d8f1d" data-name="Background">
    <rect width="256" height="256" rx="24.46063" style="fill: #191919"/>
  </g>
  <path d="M177.46953,138.83563H31.75V117.98327H177.46953l-67.025-58.38662L127.5,45l95.75,83.40945L127.5,211.8189l-17.05547-14.59666Z" style="fill: url(#a46ac88e-8c6e-46c9-bec9-77ac905147e5)"/>
  <g>
    <g>
      <path d="M67.20654,163.36914q-24.97778,0-24.978-23.88965V91.09912H53.62207v48.38037q0,7.12794,3.34131,10.74024,3.34058,3.61377,10.4624,3.61328,13.804,0,13.80322-14.35352V91.09912H92.62256v48.38037q0,11.94581-6.46387,17.917Q79.6958,163.37012,67.20654,163.36914Z" style="fill: #fff"/>
      <path d="M108.398,162.36523V91.09912H119.791v71.26611Zm34.83838,0-22.34961-54.20214h-5.03906v-17.064h7.23046l22.34961,54.20264H148.166v17.06347Zm3.28515,0V91.09912H157.916v71.26611Z" style="fill: #fff"/>
      <path d="M175.22461,100.63477V91.09912h47.32617v9.53565Zm0,61.73046v-9.53515h47.32617v9.53515Zm17.91211,0V91.09912H204.5293v71.26611Z" style="fill: #fff"/>
    </g>
    <g>
      <path d="M67.20654,163.36914q-24.97778,0-24.978-23.88965V91.09912H53.62207v48.38037q0,7.12794,3.34131,10.74024,3.34058,3.61377,10.4624,3.61328,13.804,0,13.80322-14.35352V91.09912H92.62256v48.38037q0,11.94581-6.46387,17.917Q79.6958,163.37012,67.20654,163.36914Z" style="fill: #fff"/>
      <path d="M108.398,162.36523V91.09912H119.791v71.26611Zm34.83838,0-22.34961-54.20214h-5.03906v-17.064h7.23046l22.34961,54.20264H148.166v17.06347Zm3.28515,0V91.09912H157.916v71.26611Z" style="fill: #fff"/>
      <path d="M175.22461,100.63477V91.09912h47.32617v9.53565Zm0,61.73046v-9.53515h47.32617v9.53515Zm17.91211,0V91.09912H204.5293v71.26611Z" style="fill: #fff"/>
    </g>
  </g>
</svg>
